<?xml version="1.0" standalone="no"?>
<!DOCTYPE svg PUBLIC "-//W3C//DTD SVG 20010904//EN"
 "http://www.w3.org/TR/2001/REC-SVG-20010904/DTD/svg10.dtd">
<svg version="1.0" xmlns="http://www.w3.org/2000/svg"
 width="280.000000pt" height="280.000000pt" viewBox="0 0 280.000000 280.000000"
 preserveAspectRatio="xMidYMid meet">

<g transform="translate(0.000000,280.000000) scale(0.100000,-0.100000)"
fill="#FF2030" stroke="none">
<path d="M2403 2701 c-66 -17 -239 -86 -268 -107 -16 -12 -40 -25 -52 -29 -13
-3 -23 -10 -23 -15 0 -5 -15 -17 -32 -26 -18 -9 -54 -34 -80 -55 -26 -22 -51
-39 -57 -39 -6 0 -16 -9 -23 -20 -7 -11 -19 -20 -25 -20 -7 0 -41 -25 -74 -56
-67 -62 -58 -60 -199 -34 -36 6 -74 13 -85 14 -12 1 -25 5 -30 8 -6 3 -38 8
-73 12 -34 4 -80 13 -102 21 -23 8 -98 22 -168 30 -70 9 -138 22 -152 28 -14
6 -74 19 -135 29 -60 10 -132 22 -160 27 -142 26 -121 32 -212 -56 -76 -73
-87 -90 -84 -135 2 -29 38 -54 195 -133 194 -99 230 -118 234 -127 2 -5 8 -8
13 -8 15 0 89 -34 89 -41 0 -4 20 -13 45 -20 25 -7 45 -17 45 -21 0 -4 15 -14
33 -23 77 -35 189 -101 187 -110 -2 -12 -55 -78 -87 -110 -13 -12 -23 -27 -23
-34 0 -6 -4 -11 -8 -11 -11 0 -152 -167 -152 -180 0 -5 -4 -10 -9 -10 -6 0
-16 -11 -23 -24 -7 -13 -33 -50 -58 -82 -25 -33 -49 -66 -55 -75 -5 -9 -23
-35 -39 -58 -29 -41 -30 -42 -75 -35 -25 3 -71 12 -101 19 -30 8 -84 17 -120
21 -36 3 -78 12 -95 19 -16 8 -54 17 -83 20 l-52 7 -77 -74 c-98 -92 -102 -98
-103 -127 0 -30 59 -87 99 -96 17 -3 40 -14 53 -24 13 -10 41 -27 63 -38 49
-24 88 -46 95 -54 3 -3 28 -14 55 -23 72 -23 103 -64 73 -95 -9 -8 -13 -43
-13 -101 0 -84 1 -90 29 -119 16 -16 44 -37 61 -46 40 -19 121 -20 156 -1 54
28 74 27 95 -2 11 -15 26 -43 34 -62 7 -19 24 -51 37 -70 13 -19 23 -41 23
-49 0 -7 17 -41 38 -75 21 -34 43 -72 50 -86 41 -81 40 -80 91 -80 46 0 50 3
114 69 55 57 67 75 67 102 0 64 -22 215 -36 244 -16 35 -34 154 -34 222 1 43
4 51 37 76 20 15 42 27 49 27 7 0 18 9 24 20 6 11 16 20 21 20 10 0 42 25 165
125 18 14 35 25 39 25 3 0 52 41 108 91 132 119 164 142 181 136 8 -3 37 -52
64 -109 28 -57 57 -110 66 -117 9 -8 16 -21 16 -31 0 -9 8 -28 18 -41 22 -29
122 -232 122 -248 0 -5 8 -15 18 -20 10 -5 24 -29 31 -53 7 -24 21 -52 31 -63
10 -11 21 -31 25 -45 12 -39 52 -98 75 -110 12 -6 35 -8 51 -5 37 8 148 109
165 151 15 36 5 120 -27 239 -10 38 -19 81 -19 95 0 14 -6 54 -14 90 -8 36
-22 102 -31 148 -22 108 -21 105 -27 122 -3 8 -10 57 -16 108 -6 52 -15 99
-20 105 -12 14 -42 198 -42 252 0 31 10 47 60 104 33 37 60 73 60 79 0 5 3 12
8 14 14 6 110 135 130 175 11 22 28 45 36 52 9 8 16 22 16 31 0 10 3 20 8 22
15 6 62 115 78 178 31 122 30 148 -8 252 -12 32 -91 108 -112 108 -8 0 -16 4
-18 10 -4 13 -126 21 -165 11z"/>
</g>
</svg>
