<?xml version="1.0" standalone="no"?>
<!DOCTYPE svg PUBLIC "-//W3C//DTD SVG 20010904//EN"
 "http://www.w3.org/TR/2001/REC-SVG-20010904/DTD/svg10.dtd">
<svg version="1.0" xmlns="http://www.w3.org/2000/svg"
 width="800.000000pt" height="230.000000pt" viewBox="0 0 800.000000 230.000000"
 preserveAspectRatio="xMidYMid meet">

<g transform="translate(0.000000,230.000000) scale(0.100000,-0.100000)"
fill="#000000" stroke="none">
<path d="M2306 1689 c-69 -16 -177 -75 -281 -151 -55 -41 -106 -82 -114 -91
-7 -9 -22 -17 -33 -17 -11 0 -173 29 -360 65 -186 36 -346 65 -355 65 -20 0
-120 -86 -125 -108 -12 -43 10 -59 264 -191 139 -73 257 -136 261 -140 4 -5
-30 -53 -76 -107 -75 -88 -194 -243 -214 -279 -7 -10 -37 -7 -153 16 -80 15
-151 28 -158 29 -7 0 -38 -23 -68 -52 -46 -44 -55 -57 -52 -82 3 -29 13 -37
138 -104 103 -55 134 -76 132 -90 -2 -9 -6 -41 -9 -69 -5 -50 -4 -54 31 -89
36 -36 38 -37 94 -31 31 3 64 8 72 11 11 4 33 -29 86 -132 l71 -137 40 -3 c36
-3 44 1 81 42 25 27 42 55 42 69 0 14 -11 79 -25 147 -14 68 -25 135 -24 149
0 21 17 38 87 89 48 34 134 102 192 151 58 49 108 86 111 83 4 -4 64 -117 134
-252 135 -260 160 -296 193 -286 27 9 125 114 119 129 -2 7 -35 172 -72 367
l-68 355 72 90 c139 172 211 326 196 421 -11 79 -93 147 -170 143 -11 -1 -38
-5 -59 -10z"/>
</g>
</svg>
